<svg width="19" height="19" viewBox="0 0 19 19" xmlns="http://www.w3.org/2000/svg">
<path fill-rule="evenodd" clip-rule="evenodd" d="M2.51188 2.51177C5.86084 -0.837215 11.2908 -0.837215 14.6399 2.51177C17.8002 5.67214 17.9783 10.6855 15.1742 14.0546L18.7683 17.6486C19.0773 17.9578 19.0773 18.4591 18.7683 18.7681C18.4591 19.0773 17.9578 19.0773 17.6486 18.7681L14.0546 15.1741C10.6855 17.9782 5.6723 17.8002 2.51188 14.6398C-0.837212 11.2907 -0.837212 5.86085 2.51188 2.51177ZM4.90382 5.69548C5.21302 5.38628 5.21302 4.88503 4.90382 4.57598C4.59462 4.26678 4.09338 4.26678 3.78419 4.57598C1.57515 6.78503 1.57515 10.3669 3.78419 12.576C4.09339 12.8852 4.59463 12.8852 4.90382 12.576C5.21301 12.2668 5.21302 11.7655 4.90382 11.4563C3.31303 9.86553 3.31303 7.28652 4.90382 5.69562V5.69548Z"/>
</svg>
